<svg xmlns="http://www.w3.org/2000/svg" version="1.1" xmlns:xlink="http://www.w3.org/1999/xlink" xmlns:svgjs="http://svgjs.dev/svgjs" width="2000" height="1500" viewBox="0 0 2000 1500"><rect width="2000" height="1500" fill="#000000"></rect><g transform="matrix(0.75,0,0,0.75,249.090909090909,311.10503460672044)"><svg viewBox="0 0 396 247" data-background-color="#000000" preserveAspectRatio="xMidYMid meet" height="1247" width="2000" xmlns="http://www.w3.org/2000/svg" xmlns:xlink="http://www.w3.org/1999/xlink"><g id="tight-bounds" transform="matrix(1,0,0,1,0.2400000000000091,-0.09999999999999432)"><svg viewBox="0 0 395.52 247.2" height="247.2" width="395.52"><g><svg></svg></g><g><svg viewBox="0 0 395.52 247.2" height="247.2" width="395.52"><g transform="matrix(1,0,0,1,75.54432,56.83901180616739)"><svg viewBox="0 0 244.43135999999998 133.5219763876652" height="133.5219763876652" width="244.43135999999998"><g><svg viewBox="0 0 244.43135999999998 133.5219763876652" height="133.5219763876652" width="244.43135999999998"><g><svg viewBox="0 0 244.43135999999998 133.5219763876652" height="133.5219763876652" width="244.43135999999998"><g><svg viewBox="0 0 244.43135999999998 133.5219763876652" height="133.5219763876652" width="244.43135999999998"><g id="textblocktransform"><svg viewBox="0 0 244.43135999999998 133.5219763876652" height="133.5219763876652" width="244.43135999999998" id="textblock"><g><svg viewBox="0 0 244.43135999999998 133.5219763876652" height="133.5219763876652" width="244.43135999999998"><g transform="matrix(1,0,0,1,0,0)"><svg width="244.43135999999998" viewBox="0.98 -29.79 55.410000000000004 30.28" height="133.5219763876652" data-palette-color="url(#bc0b55b9-dd10-429e-8c25-edd11435241b)"></svg></g></svg></g></svg></g></svg></g><g></g></svg></g></svg></g></svg></g><g><path d="M125.115 25.318A122.216 122.216 0 0 1 270.405 25.318L258.364 25.318A110.175 110.175 0 0 0 137.156 25.318L125.115 25.318M125.115 221.882A122.216 122.216 0 0 0 270.405 221.882L258.364 221.882A110.175 110.175 0 0 1 137.156 221.882L125.115 221.882" fill="#f00b51" stroke="transparent" data-fill-palette-color="tertiary"></path></g></svg></g><defs></defs><mask id="b8c9262a-4a58-4afe-b79b-07a6c2272f89"><g id="SvgjsG7290"><svg viewBox="0 0 395.52 247.2" height="247.2" width="395.52"><g><svg></svg></g><g><svg viewBox="0 0 395.52 247.2" height="247.2" width="395.52"><g transform="matrix(1,0,0,1,75.54432,56.83901180616739)"><svg viewBox="0 0 244.43135999999998 133.5219763876652" height="133.5219763876652" width="244.43135999999998"><g><svg viewBox="0 0 244.43135999999998 133.5219763876652" height="133.5219763876652" width="244.43135999999998"><g><svg viewBox="0 0 244.43135999999998 133.5219763876652" height="133.5219763876652" width="244.43135999999998"><g><svg viewBox="0 0 244.43135999999998 133.5219763876652" height="133.5219763876652" width="244.43135999999998"><g id="SvgjsG7289"><svg viewBox="0 0 244.43135999999998 133.5219763876652" height="133.5219763876652" width="244.43135999999998" id="SvgjsSvg7288"><g><svg viewBox="0 0 244.43135999999998 133.5219763876652" height="133.5219763876652" width="244.43135999999998"><g transform="matrix(1,0,0,1,0,0)"><svg width="244.43135999999998" viewBox="0.98 -29.79 55.410000000000004 30.28" height="133.5219763876652" data-palette-color="url(#bc0b55b9-dd10-429e-8c25-edd11435241b)"><path d="M22.17-29.3L22.17-28.03 26.32-28.03 26.32-6.15 7.76-29.3 0.98-29.3 0.98-28.03 4.88-28.03 4.88-1.27 0.98-1.27 0.98 0 10.99 0Q10.99-1.07 10.21-1.22L10.21-1.22Q9.96-1.27 9.72-1.27L9.72-1.27 6.84-1.27 6.84-23.88 26.03 0.24 28.27-0.24 28.27-28.03 32.18-28.03 32.18-29.3 22.17-29.3ZM56.39-7.67L56.39-7.67Q56.39-12.01 51.71-14.65L51.71-14.65Q50.78-15.14 45.99-17.24L45.99-17.24Q41.65-19.09 40.52-21.04L40.52-21.04Q39.94-22.12 39.94-23.34L39.94-23.34Q39.94-26.61 43.11-27.88L43.11-27.88Q44.48-28.42 46.14-28.42L46.14-28.42Q50.24-28.42 52.39-25.63L52.39-25.63Q53.81-23.73 53.76-21L53.76-21 55.22-21 55.22-29.54Q54.05-29.54 53.85-28.81L53.85-28.81Q53.76-28.47 53.76-27.88L53.76-27.88Q50.29-29.79 45.94-29.79L45.94-29.79Q40.67-29.79 37.74-26.86L37.74-26.86Q35.79-24.8 35.79-22.07L35.79-22.07Q35.79-17.97 40.38-15.38L40.38-15.38Q41.21-14.94 45.94-12.89L45.94-12.89Q50.34-10.94 51.51-8.94L51.51-8.94Q52.15-7.81 52.15-6.49L52.15-6.49Q52.15-3.08 48.83-1.56L48.83-1.56Q47.26-0.88 45.36-0.88L45.36-0.88Q37.89-0.98 37.06-10.01L37.06-10.01 35.59-10.01 35.59 0.1Q36.77 0.1 36.96-0.59L36.96-0.59Q37.06-0.98 37.06-2L37.06-2Q40.82 0.49 45.6 0.49L45.6 0.49Q51.22 0.49 54.29-2.54L54.29-2.54Q56.39-4.69 56.39-7.67Z" opacity="1" transform="matrix(1,0,0,1,0,0)" fill="white" class="wordmark-text-0" id="SvgjsPath7287"></path></svg></g></svg></g></svg></g></svg></g><g></g></svg></g></svg></g></svg></g><g><path d="M125.115 25.318A122.216 122.216 0 0 1 270.405 25.318L258.364 25.318A110.175 110.175 0 0 0 137.156 25.318L125.115 25.318M125.115 221.882A122.216 122.216 0 0 0 270.405 221.882L258.364 221.882A110.175 110.175 0 0 1 137.156 221.882L125.115 221.882" fill="black" stroke="transparent"></path></g></svg></g><defs><mask></mask></defs></svg><rect width="395.52" height="247.2" fill="black" stroke="none" visibility="hidden"></rect></g></mask><linearGradient x1="0" x2="1" y1="0.5" y2="0.5" id="bc0b55b9-dd10-429e-8c25-edd11435241b"><stop stop-color="#f00b51" offset="0"></stop><stop stop-color="#730062" offset="1"></stop></linearGradient><rect width="395.52" height="247.2" fill="url(#bc0b55b9-dd10-429e-8c25-edd11435241b)" mask="url(#b8c9262a-4a58-4afe-b79b-07a6c2272f89)" data-fill-palette-color="primary"></rect></svg><rect width="395.52" height="247.2" fill="none" stroke="none" visibility="hidden"></rect></g></svg></g></svg>